# Wavefront OBJ file automatically generated by Tiled2Unity

# Vertices (Count = 99)
v -128 -992 0
v -160 -992 0
v -160 -960 0
v -128 -960 0
v -192 -992 0
v -192 -960 0
v -224 -992 0
v -224 -960 0
v -256 -992 0
v -256 -960 0
v -288 -992 0
v -288 -960 0
v -320 -992 0
v -320 -960 0
v -352 -992 0
v -352 -960 0
v -384 -992 0
v -384 -960 0
v -128 -1024 0
v -160 -1024 0
v -192 -1024 0
v -224 -1024 0
v -256 -1024 0
v -288 -1024 0
v -320 -1024 0
v -352 -1024 0
v -384 -1024 0
v -128 -1056 0
v -160 -1056 0
v -192 -1056 0
v -224 -1056 0
v -256 -1056 0
v -288 -1056 0
v -320 -1056 0
v -352 -1056 0
v -384 -1056 0
v -128 -1088 0
v -160 -1088 0
v -192 -1088 0
v -224 -1088 0
v -288 -1088 0
v -320 -1088 0
v -352 -1088 0
v -384 -1088 0
v -128 -1120 0
v -160 -1120 0
v -192 -1120 0
v -224 -1120 0
v -288 -1120 0
v -320 -1120 0
v -352 -1120 0
v -384 -1120 0
v -128 -1152 0
v -160 -1152 0
v -192 -1152 0
v -224 -1152 0
v -256 -1152 0
v -256 -1120 0
v -288 -1152 0
v -320 -1152 0
v -352 -1152 0
v -384 -1152 0
v -128 -1184 0
v -160 -1184 0
v -192 -1184 0
v -224 -1184 0
v -256 -1184 0
v -288 -1184 0
v -320 -1184 0
v -352 -1184 0
v -384 -1184 0
v -128 -1216 0
v -160 -1216 0
v -192 -1216 0
v -224 -1216 0
v -256 -1216 0
v -288 -1216 0
v -320 -1216 0
v -352 -1216 0
v -384 -1216 0
v -256 -1088 0
v -128 -928 0
v -160 -928 0
v -160 -896 0
v -128 -896 0
v -192 -928 0
v -192 -896 0
v -224 -928 0
v -224 -896 0
v -256 -928 0
v -256 -896 0
v -288 -928 0
v -288 -896 0
v -320 -928 0
v -320 -896 0
v -352 -928 0
v -352 -896 0
v -384 -928 0
v -384 -896 0

# Texture cooridinates (Count = 92)
vt 0.1765927 0.919314
vt 0.235172 0.919314
vt 0.235172 0.9460059
vt 0.1765927 0.9460059
vt 0.2354162 0.919314
vt 0.2939956 0.919314
vt 0.2939956 0.9460059
vt 0.2354162 0.9460059
vt 0.2942397 0.919314
vt 0.3528191 0.919314
vt 0.3528191 0.9460059
vt 0.2942397 0.9460059
vt 0.3530633 0.919314
vt 0.4116426 0.919314
vt 0.4116426 0.9460059
vt 0.3530633 0.9460059
vt 0.4118868 0.919314
vt 0.4704662 0.919314
vt 0.4704662 0.9460059
vt 0.4118868 0.9460059
vt 0.4707103 0.919314
vt 0.5292897 0.919314
vt 0.5292897 0.9460059
vt 0.4707103 0.9460059
vt 0.5295339 0.919314
vt 0.5881132 0.919314
vt 0.5881132 0.9460059
vt 0.5295339 0.9460059
vt 0.5883574 0.919314
vt 0.6469368 0.919314
vt 0.6469368 0.9460059
vt 0.5883574 0.9460059
vt 0.0001220703 0.6667888
vt 0.08321127 0.6667888
vt 0.08321127 0.8332112
vt 0.0001220703 0.8332112
vt 0.08345541 0.6667888
vt 0.1665446 0.6667888
vt 0.1665446 0.8332112
vt 0.08345541 0.8332112
vt 0.0001220703 0.5001221
vt 0.08321127 0.5001221
vt 0.08321127 0.6665446
vt 0.0001220703 0.6665446
vt 0.08345541 0.5001221
vt 0.1665446 0.5001221
vt 0.1665446 0.6665446
vt 0.08345541 0.6665446
vt 0.2106484 0.4763125
vt 0.2630358 0.4763125
vt 0.2630358 0.5236875
vt 0.2106484 0.5236875
vt 0.0001220703 0.889011
vt 0.1248779 0.889011
vt 0.1248779 0.9998779
vt 0.0001220703 0.9998779
vt 0.1251221 0.889011
vt 0.2498779 0.889011
vt 0.2498779 0.9998779
vt 0.1251221 0.9998779
vt 0.0001220703 0.7778999
vt 0.1248779 0.7778999
vt 0.1248779 0.8887668
vt 0.0001220703 0.8887668
vt 0.1251221 0.7778999
vt 0.2498779 0.7778999
vt 0.2498779 0.8887668
vt 0.1251221 0.8887668
vt 0.0001220703 0.6001221
vt 0.1665446 0.6001221
vt 0.1665446 0.7998779
vt 0.0001220703 0.7998779
vt 0.0001220703 0.4001221
vt 0.1665446 0.4001221
vt 0.1665446 0.599878
vt 0.0001220703 0.599878
vt 0.0001220703 0.2001221
vt 0.1665446 0.2001221
vt 0.1665446 0.3998779
vt 0.0001220703 0.3998779
vt 0.3159115 0.5715507
vt 0.368299 0.5715507
vt 0.368299 0.6189256
vt 0.3159115 0.6189256
vt 0.1765927 0.7576978
vt 0.235172 0.7576978
vt 0.235172 0.7843897
vt 0.1765927 0.7843897
vt 0.2354162 0.05736113
vt 0.2939956 0.05736113
vt 0.2939956 0.08405302
vt 0.2354162 0.08405302

# Normal
vn 0 0 -1

# Groups (Count = 7)

g mesh_0001
f 1/1/1 2/2/1 3/3/1 4/4/1
f 2/5/1 5/6/1 6/7/1 3/8/1
f 5/9/1 7/10/1 8/11/1 6/12/1
f 7/13/1 9/14/1 10/15/1 8/16/1
f 9/17/1 11/18/1 12/19/1 10/20/1
f 11/21/1 13/22/1 14/23/1 12/24/1
f 13/25/1 15/26/1 16/27/1 14/28/1
f 15/29/1 17/30/1 18/31/1 16/32/1
f 19/1/1 20/2/1 2/3/1 1/4/1
f 20/5/1 21/6/1 5/7/1 2/8/1
f 21/9/1 22/10/1 7/11/1 5/12/1
f 22/13/1 23/14/1 9/15/1 7/16/1
f 23/17/1 24/18/1 11/19/1 9/20/1
f 24/21/1 25/22/1 13/23/1 11/24/1
f 25/25/1 26/26/1 15/27/1 13/28/1
f 26/29/1 27/30/1 17/31/1 15/32/1
f 28/1/1 29/2/1 20/3/1 19/4/1
f 29/5/1 30/6/1 21/7/1 20/8/1
f 30/9/1 31/10/1 22/11/1 21/12/1
f 31/13/1 32/14/1 23/15/1 22/16/1
f 32/17/1 33/18/1 24/19/1 23/20/1
f 33/21/1 34/22/1 25/23/1 24/24/1
f 34/25/1 35/26/1 26/27/1 25/28/1
f 35/29/1 36/30/1 27/31/1 26/32/1
f 37/1/1 38/2/1 29/3/1 28/4/1
f 38/5/1 39/6/1 30/7/1 29/8/1
f 39/9/1 40/10/1 31/11/1 30/12/1
f 41/21/1 42/22/1 34/23/1 33/24/1
f 42/25/1 43/26/1 35/27/1 34/28/1
f 43/29/1 44/30/1 36/31/1 35/32/1
f 45/1/1 46/2/1 38/3/1 37/4/1
f 46/5/1 47/6/1 39/7/1 38/8/1
f 47/9/1 48/10/1 40/11/1 39/12/1
f 49/21/1 50/22/1 42/23/1 41/24/1
f 50/25/1 51/26/1 43/27/1 42/28/1
f 51/29/1 52/30/1 44/31/1 43/32/1
f 53/1/1 54/2/1 46/3/1 45/4/1
f 54/5/1 55/6/1 47/7/1 46/8/1
f 55/9/1 56/10/1 48/11/1 47/12/1
f 56/13/1 57/14/1 58/15/1 48/16/1
f 57/17/1 59/18/1 49/19/1 58/20/1
f 59/21/1 60/22/1 50/23/1 49/24/1
f 60/25/1 61/26/1 51/27/1 50/28/1
f 61/29/1 62/30/1 52/31/1 51/32/1
f 63/1/1 64/2/1 54/3/1 53/4/1
f 64/5/1 65/6/1 55/7/1 54/8/1
f 65/9/1 66/10/1 56/11/1 55/12/1
f 66/13/1 67/14/1 57/15/1 56/16/1
f 67/17/1 68/18/1 59/19/1 57/20/1
f 68/21/1 69/22/1 60/23/1 59/24/1
f 69/25/1 70/26/1 61/27/1 60/28/1
f 70/29/1 71/30/1 62/31/1 61/32/1
f 72/1/1 73/2/1 64/3/1 63/4/1
f 73/5/1 74/6/1 65/7/1 64/8/1
f 74/9/1 75/10/1 66/11/1 65/12/1
f 75/13/1 76/14/1 67/15/1 66/16/1
f 76/17/1 77/18/1 68/19/1 67/20/1
f 77/21/1 78/22/1 69/23/1 68/24/1
f 78/25/1 79/26/1 70/27/1 69/28/1
f 79/29/1 80/30/1 71/31/1 70/32/1

g mesh_0002
f 40/33/1 81/34/1 32/35/1 31/36/1
f 81/37/1 41/38/1 33/39/1 32/40/1
f 48/41/1 58/42/1 81/43/1 40/44/1
f 58/45/1 49/46/1 41/47/1 81/48/1

g mesh_0003
f 82/49/1 83/50/1 84/51/1 85/52/1
f 83/49/1 86/50/1 87/51/1 84/52/1
f 86/49/1 88/50/1 89/51/1 87/52/1
f 88/49/1 90/50/1 91/51/1 89/52/1
f 90/49/1 92/50/1 93/51/1 91/52/1
f 92/49/1 94/50/1 95/51/1 93/52/1
f 94/49/1 96/50/1 97/51/1 95/52/1
f 96/49/1 98/50/1 99/51/1 97/52/1
f 4/49/1 3/50/1 83/51/1 82/52/1
f 3/49/1 6/50/1 86/51/1 83/52/1
f 6/49/1 8/50/1 88/51/1 86/52/1
f 8/49/1 10/50/1 90/51/1 88/52/1
f 10/49/1 12/50/1 92/51/1 90/52/1
f 12/49/1 14/50/1 94/51/1 92/52/1
f 14/49/1 16/50/1 96/51/1 94/52/1
f 16/49/1 18/50/1 98/51/1 96/52/1

g mesh_0004
f 4/53/1 3/54/1 83/55/1 82/56/1
f 3/57/1 6/58/1 86/59/1 83/60/1
f 14/53/1 16/54/1 96/55/1 94/56/1
f 16/57/1 18/58/1 98/59/1 96/60/1
f 1/61/1 2/62/1 3/63/1 4/64/1
f 2/65/1 5/66/1 6/67/1 3/68/1
f 13/61/1 15/62/1 16/63/1 14/64/1
f 15/65/1 17/66/1 18/67/1 16/68/1

g mesh_0005
f 53/69/1 54/70/1 46/71/1 45/72/1
f 63/73/1 64/74/1 54/75/1 53/76/1
f 72/77/1 73/78/1 64/79/1 63/80/1

g mesh_0006
f 14/81/1 16/82/1 96/83/1 94/84/1
f 16/81/1 18/82/1 98/83/1 96/84/1

g mesh_0007
f 4/85/1 3/86/1 83/87/1 82/88/1
f 3/89/1 6/90/1 86/91/1 83/92/1
f 6/89/1 8/90/1 88/91/1 86/92/1
f 8/89/1 10/90/1 90/91/1 88/92/1
f 10/89/1 12/90/1 92/91/1 90/92/1
f 12/89/1 14/90/1 94/91/1 92/92/1
f 14/89/1 16/90/1 96/91/1 94/92/1
f 16/89/1 18/90/1 98/91/1 96/92/1
f 1/85/1 2/86/1 3/87/1 4/88/1
f 2/89/1 5/90/1 6/91/1 3/92/1
f 13/89/1 15/90/1 16/91/1 14/92/1
f 15/89/1 17/90/1 18/91/1 16/92/1
f 53/89/1 54/90/1 46/91/1 45/92/1
f 63/89/1 64/90/1 54/91/1 53/92/1
f 72/89/1 73/90/1 64/91/1 63/92/1

