# Wavefront OBJ file automatically generated by Tiled2Unity

# Vertices (Count = 63)
v 0 -32 0
v -32 -32 0
v -32 0 0
v 0 0 0
v -64 -32 0
v -64 0 0
v -96 -32 0
v -96 0 0
v -128 -32 0
v -128 0 0
v -160 -32 0
v -160 0 0
v -192 -32 0
v -192 0 0
v 0 -64 0
v -32 -64 0
v -64 -64 0
v -96 -64 0
v -128 -64 0
v -160 -64 0
v -192 -64 0
v 0 -96 0
v -32 -96 0
v -64 -96 0
v -96 -96 0
v -128 -96 0
v -160 -96 0
v -192 -96 0
v 0 -128 0
v -32 -128 0
v -64 -128 0
v -96 -128 0
v -128 -128 0
v -160 -128 0
v -192 -128 0
v 0 -160 0
v -32 -160 0
v -64 -160 0
v -96 -160 0
v -128 -160 0
v -160 -160 0
v -192 -160 0
v 0 -192 0
v -32 -192 0
v -64 -192 0
v -96 -192 0
v -128 -192 0
v -160 -192 0
v -192 -192 0
v 0 -224 0
v -32 -224 0
v -64 -224 0
v -96 -224 0
v -128 -224 0
v -160 -224 0
v -192 -224 0
v 0 -256 0
v -32 -256 0
v -64 -256 0
v -96 -256 0
v -128 -256 0
v -160 -256 0
v -192 -256 0

# Texture cooridinates (Count = 176)
vt 0.4707103 0.919314
vt 0.5292897 0.919314
vt 0.5292897 0.9460059
vt 0.4707103 0.9460059
vt 0.5295339 0.919314
vt 0.5881132 0.919314
vt 0.5881132 0.9460059
vt 0.5295339 0.9460059
vt 0.5883574 0.919314
vt 0.6469368 0.919314
vt 0.6469368 0.9460059
vt 0.5883574 0.9460059
vt 0.6471809 0.919314
vt 0.7057603 0.919314
vt 0.7057603 0.9460059
vt 0.6471809 0.9460059
vt 0.7060044 0.919314
vt 0.7645838 0.919314
vt 0.7645838 0.9460059
vt 0.7060044 0.9460059
vt 0.764828 0.919314
vt 0.8234074 0.919314
vt 0.8234074 0.9460059
vt 0.764828 0.9460059
vt 0.3159115 0.6667888
vt 0.368299 0.6667888
vt 0.368299 0.7141637
vt 0.3159115 0.7141637
vt 0.2501221 0.3126221
vt 0.3123779 0.3126221
vt 0.3123779 0.3748779
vt 0.2501221 0.3748779
vt 0.2501221 0.2501221
vt 0.3123779 0.2501221
vt 0.3123779 0.3123779
vt 0.2501221 0.3123779
vt 0.7501221 0.5001221
vt 0.8123779 0.5001221
vt 0.8123779 0.6248779
vt 0.7501221 0.6248779
vt 0.8126221 0.5001221
vt 0.8748779 0.5001221
vt 0.8748779 0.6248779
vt 0.8126221 0.6248779
vt 0.0001220703 0.5001221
vt 0.06237793 0.5001221
vt 0.06237793 0.5623779
vt 0.0001220703 0.5623779
vt 0.06262207 0.5001221
vt 0.1248779 0.5001221
vt 0.1248779 0.5623779
vt 0.06262207 0.5623779
vt 0.1251221 0.5001221
vt 0.1873779 0.5001221
vt 0.1873779 0.5623779
vt 0.1251221 0.5623779
vt 0.1876221 0.5001221
vt 0.2498779 0.5001221
vt 0.2498779 0.5623779
vt 0.1876221 0.5623779
vt 0.2501221 0.5001221
vt 0.3123779 0.5001221
vt 0.3123779 0.5623779
vt 0.2501221 0.5623779
vt 0.0001220703 0.4376221
vt 0.06237793 0.4376221
vt 0.06237793 0.4998779
vt 0.0001220703 0.4998779
vt 0.06262207 0.4376221
vt 0.1248779 0.4376221
vt 0.1248779 0.4998779
vt 0.06262207 0.4998779
vt 0.1251221 0.4376221
vt 0.1873779 0.4376221
vt 0.1873779 0.4998779
vt 0.1251221 0.4998779
vt 0.1876221 0.4376221
vt 0.2498779 0.4376221
vt 0.2498779 0.4998779
vt 0.1876221 0.4998779
vt 0.2501221 0.4376221
vt 0.3123779 0.4376221
vt 0.3123779 0.4998779
vt 0.2501221 0.4998779
vt 0.0001220703 0.3751221
vt 0.06237793 0.3751221
vt 0.06237793 0.4373779
vt 0.0001220703 0.4373779
vt 0.06262207 0.3751221
vt 0.1248779 0.3751221
vt 0.1248779 0.4373779
vt 0.06262207 0.4373779
vt 0.1251221 0.3751221
vt 0.1873779 0.3751221
vt 0.1873779 0.4373779
vt 0.1251221 0.4373779
vt 0.1876221 0.3751221
vt 0.2498779 0.3751221
vt 0.2498779 0.4373779
vt 0.1876221 0.4373779
vt 0.2501221 0.3751221
vt 0.3123779 0.3751221
vt 0.3123779 0.4373779
vt 0.2501221 0.4373779
vt 0.3751221 0.3126221
vt 0.4373779 0.3126221
vt 0.4373779 0.3748779
vt 0.3751221 0.3748779
vt 0.06262207 0.3126221
vt 0.1248779 0.3126221
vt 0.1248779 0.3748779
vt 0.06262207 0.3748779
vt 0.1251221 0.3126221
vt 0.1873779 0.3126221
vt 0.1873779 0.3748779
vt 0.1251221 0.3748779
vt 0.1876221 0.3126221
vt 0.2498779 0.3126221
vt 0.2498779 0.3748779
vt 0.1876221 0.3748779
vt 0.3751221 0.2501221
vt 0.4373779 0.2501221
vt 0.4373779 0.3123779
vt 0.3751221 0.3123779
vt 0.2501221 0.4445665
vt 0.3748779 0.4445665
vt 0.3748779 0.5554335
vt 0.2501221 0.5554335
vt 0.3751221 0.4445665
vt 0.4998779 0.4445665
vt 0.4998779 0.5554335
vt 0.3751221 0.5554335
vt 0.2501221 0.3334554
vt 0.3748779 0.3334554
vt 0.3748779 0.4443224
vt 0.2501221 0.4443224
vt 0.3751221 0.3334554
vt 0.4998779 0.3334554
vt 0.4998779 0.4443224
vt 0.3751221 0.4443224
vt 0.0001220703 0.5363539
vt 0.11582 0.5363539
vt 0.11582 0.6520519
vt 0.0001220703 0.6520519
vt 0.1160641 0.5363539
vt 0.231762 0.5363539
vt 0.231762 0.6520519
vt 0.1160641 0.6520519
vt 0.0001220703 0.4204119
vt 0.11582 0.4204119
vt 0.11582 0.5361098
vt 0.0001220703 0.5361098
vt 0.1160641 0.4204119
vt 0.231762 0.4204119
vt 0.231762 0.5361098
vt 0.1160641 0.5361098
vt 0.0001220703 0.3044699
vt 0.11582 0.3044699
vt 0.11582 0.4201678
vt 0.0001220703 0.4201678
vt 0.1160641 0.3044699
vt 0.231762 0.3044699
vt 0.231762 0.4201678
vt 0.1160641 0.4201678
vt 0.1251221 0.2501221
vt 0.1873779 0.2501221
vt 0.1873779 0.3123779
vt 0.1251221 0.3123779
vt 0.1876221 0.2501221
vt 0.2498779 0.2501221
vt 0.2498779 0.3123779
vt 0.1876221 0.3123779
vt 0.3159115 0.0001220703
vt 0.368299 0.0001220703
vt 0.368299 0.04749698
vt 0.3159115 0.04749698

# Normal
vn 0 0 -1

# Groups (Count = 6)

g mesh_0001
f 1/1/1 2/2/1 3/3/1 4/4/1
f 2/5/1 5/6/1 6/7/1 3/8/1
f 5/9/1 7/10/1 8/11/1 6/12/1
f 7/13/1 9/14/1 10/15/1 8/16/1
f 9/17/1 11/18/1 12/19/1 10/20/1
f 11/21/1 13/22/1 14/23/1 12/24/1
f 15/21/1 16/22/1 2/23/1 1/24/1
f 16/13/1 17/14/1 5/15/1 2/16/1
f 17/17/1 18/18/1 7/19/1 5/20/1
f 18/21/1 19/22/1 9/23/1 7/24/1
f 19/21/1 20/22/1 11/23/1 9/24/1
f 20/21/1 21/22/1 13/23/1 11/24/1
f 22/5/1 23/6/1 16/7/1 15/8/1
f 23/9/1 24/10/1 17/11/1 16/12/1
f 24/1/1 25/2/1 18/3/1 17/4/1
f 25/5/1 26/6/1 19/7/1 18/8/1
f 26/9/1 27/10/1 20/11/1 19/12/1
f 27/13/1 28/14/1 21/15/1 20/16/1
f 29/1/1 30/2/1 23/3/1 22/4/1
f 30/5/1 31/6/1 24/7/1 23/8/1
f 31/9/1 32/10/1 25/11/1 24/12/1
f 32/13/1 33/14/1 26/15/1 25/16/1
f 33/17/1 34/18/1 27/19/1 26/20/1
f 34/21/1 35/22/1 28/23/1 27/24/1
f 36/9/1 37/10/1 30/11/1 29/12/1
f 37/13/1 38/14/1 31/15/1 30/16/1
f 38/17/1 39/18/1 32/19/1 31/20/1
f 39/21/1 40/22/1 33/23/1 32/24/1
f 40/17/1 41/18/1 34/19/1 33/20/1
f 41/21/1 42/22/1 35/23/1 34/24/1
f 43/1/1 44/2/1 37/3/1 36/4/1
f 44/5/1 45/6/1 38/7/1 37/8/1
f 45/9/1 46/10/1 39/11/1 38/12/1
f 46/1/1 47/2/1 40/3/1 39/4/1
f 47/1/1 48/2/1 41/3/1 40/4/1
f 48/5/1 49/6/1 42/7/1 41/8/1
f 50/17/1 51/18/1 44/19/1 43/20/1
f 51/21/1 52/22/1 45/23/1 44/24/1
f 52/21/1 53/22/1 46/23/1 45/24/1
f 53/13/1 54/14/1 47/15/1 46/16/1
f 54/17/1 55/18/1 48/19/1 47/20/1
f 55/21/1 56/22/1 49/23/1 48/24/1
f 57/17/1 58/18/1 51/19/1 50/20/1
f 58/21/1 59/22/1 52/23/1 51/24/1
f 59/13/1 60/14/1 53/15/1 52/16/1
f 60/17/1 61/18/1 54/19/1 53/20/1
f 61/21/1 62/22/1 55/23/1 54/24/1
f 62/21/1 63/22/1 56/23/1 55/24/1

g mesh_0002
f 1/25/1 2/26/1 3/27/1 4/28/1
f 2/25/1 5/26/1 6/27/1 3/28/1
f 5/25/1 7/26/1 8/27/1 6/28/1
f 7/25/1 9/26/1 10/27/1 8/28/1
f 9/25/1 11/26/1 12/27/1 10/28/1
f 11/25/1 13/26/1 14/27/1 12/28/1

g mesh_0003
f 43/29/1 44/30/1 37/31/1 36/32/1
f 50/33/1 51/34/1 44/35/1 43/36/1

g mesh_0004
f 5/37/1 7/38/1 8/39/1 6/40/1
f 7/41/1 9/42/1 10/43/1 8/44/1

g mesh_0005
f 22/45/1 23/46/1 16/47/1 15/48/1
f 23/49/1 24/50/1 17/51/1 16/52/1
f 24/53/1 25/54/1 18/55/1 17/56/1
f 25/57/1 26/58/1 19/59/1 18/60/1
f 26/61/1 27/62/1 20/63/1 19/64/1
f 29/65/1 30/66/1 23/67/1 22/68/1
f 30/69/1 31/70/1 24/71/1 23/72/1
f 31/73/1 32/74/1 25/75/1 24/76/1
f 32/77/1 33/78/1 26/79/1 25/80/1
f 33/81/1 34/82/1 27/83/1 26/84/1
f 36/85/1 37/86/1 30/87/1 29/88/1
f 37/89/1 38/90/1 31/91/1 30/92/1
f 38/93/1 39/94/1 32/95/1 31/96/1
f 39/97/1 40/98/1 33/99/1 32/100/1
f 40/101/1 41/102/1 34/103/1 33/104/1
f 41/105/1 42/106/1 35/107/1 34/108/1
f 44/109/1 45/110/1 38/111/1 37/112/1
f 45/113/1 46/114/1 39/115/1 38/116/1
f 46/117/1 47/118/1 40/119/1 39/120/1
f 48/121/1 49/122/1 42/123/1 41/124/1

g mesh_0006
f 1/125/1 2/126/1 3/127/1 4/128/1
f 2/129/1 5/130/1 6/131/1 3/132/1
f 9/125/1 11/126/1 12/127/1 10/128/1
f 11/129/1 13/130/1 14/131/1 12/132/1
f 15/133/1 16/134/1 2/135/1 1/136/1
f 16/137/1 17/138/1 5/139/1 2/140/1
f 19/133/1 20/134/1 11/135/1 9/136/1
f 20/137/1 21/138/1 13/139/1 11/140/1

g mesh_0007
f 47/141/1 48/142/1 41/143/1 40/144/1
f 48/145/1 49/146/1 42/147/1 41/148/1
f 54/149/1 55/150/1 48/151/1 47/152/1
f 55/153/1 56/154/1 49/155/1 48/156/1
f 61/157/1 62/158/1 55/159/1 54/160/1
f 62/161/1 63/162/1 56/163/1 55/164/1

g mesh_0008
f 1/165/1 2/166/1 3/167/1 4/168/1
f 2/165/1 5/166/1 6/167/1 3/168/1
f 9/169/1 11/170/1 12/171/1 10/172/1
f 11/169/1 13/170/1 14/171/1 12/172/1
f 20/105/1 21/106/1 13/107/1 11/108/1
f 27/121/1 28/122/1 21/123/1 20/124/1

g mesh_0009
f 1/173/1 2/174/1 3/175/1 4/176/1
f 2/173/1 5/174/1 6/175/1 3/176/1
f 9/173/1 11/174/1 12/175/1 10/176/1
f 11/173/1 13/174/1 14/175/1 12/176/1
f 15/173/1 16/174/1 2/175/1 1/176/1
f 16/173/1 17/174/1 5/175/1 2/176/1
f 19/173/1 20/174/1 11/175/1 9/176/1
f 20/173/1 21/174/1 13/175/1 11/176/1
f 30/173/1 31/174/1 24/175/1 23/176/1
f 31/173/1 32/174/1 25/175/1 24/176/1
f 32/173/1 33/174/1 26/175/1 25/176/1
f 37/173/1 38/174/1 31/175/1 30/176/1
f 38/173/1 39/174/1 32/175/1 31/176/1
f 39/173/1 40/174/1 33/175/1 32/176/1
f 48/173/1 49/174/1 42/175/1 41/176/1
f 61/173/1 62/174/1 55/175/1 54/176/1
f 62/173/1 63/174/1 56/175/1 55/176/1

